<?xml version="1.0" standalone="no"?>
<!DOCTYPE svg PUBLIC "-//W3C//DTD SVG 20010904//EN"
 "http://www.w3.org/TR/2001/REC-SVG-20010904/DTD/svg10.dtd">
<svg version="1.0" xmlns="http://www.w3.org/2000/svg"
 width="783.000000pt" height="744.000000pt" viewBox="0 0 783.000000 744.000000"
 preserveAspectRatio="xMidYMid meet">

<g transform="translate(0.000000,744.000000) scale(0.100000,-0.100000)"
fill="#000000" stroke="none">
<path d="M0 3720 l0 -3720 3915 0 3915 0 0 3720 0 3720 -3915 0 -3915 0 0
-3720z m4095 941 l1870 -817 3 -85 3 -85 -1873 -812 c-1030 -447 -1877 -812
-1881 -812 -4 0 -6 66 -5 146 l3 146 1485 644 c817 355 1545 671 1617 702 102
43 130 59 120 68 -6 6 -725 323 -1597 704 -872 381 -1595 699 -1607 706 -22
14 -23 20 -23 164 0 83 3 150 8 149 4 0 849 -368 1877 -818z"/>
</g>
</svg>
