<?xml version="1.0" standalone="no"?>
<!DOCTYPE svg PUBLIC "-//W3C//DTD SVG 20010904//EN"
 "http://www.w3.org/TR/2001/REC-SVG-20010904/DTD/svg10.dtd">
<svg version="1.0" xmlns="http://www.w3.org/2000/svg"
 width="783.000000pt" height="745.000000pt" viewBox="0 0 783.000000 745.000000"
 preserveAspectRatio="xMidYMid meet">

<g transform="translate(0.000000,745.000000) scale(0.100000,-0.100000)"
fill="#000000" stroke="none">
<path d="M0 3725 l0 -3725 3915 0 3915 0 0 3725 0 3725 -3915 0 -3915 0 0
-3725z m1560 258 l0 -86 24 22 c32 30 85 37 124 17 41 -21 52 -63 52 -198 l0
-108 -30 0 -30 0 0 123 c0 82 -4 127 -12 135 -20 20 -65 14 -97 -14 l-31 -26
0 -109 0 -109 -25 0 -25 0 0 220 0 220 25 0 c25 0 25 -1 25 -87z m1160 72 c14
-17 5 -51 -17 -59 -22 -9 -50 1 -57 20 -16 41 45 73 74 39z m600 -115 c0 -71
4 -130 8 -130 4 0 37 29 72 65 55 55 70 65 99 65 l35 0 -72 -73 c-64 -65 -71
-75 -57 -87 8 -7 43 -44 76 -81 l61 -69 -35 0 c-32 0 -43 8 -104 79 -37 44
-71 80 -75 80 -5 1 -8 -35 -8 -79 0 -79 0 -80 -25 -80 l-25 0 0 220 0 220 25
0 25 0 0 -130z m1510 115 c14 -17 5 -51 -17 -59 -22 -9 -50 1 -57 20 -16 41
45 73 74 39z m-3402 -37 c-3 -20 -10 -23 -60 -26 l-58 -3 0 -179 0 -180 -30 0
-30 0 0 180 0 180 -60 0 c-57 0 -60 1 -60 25 l0 25 151 0 c150 0 150 0 147
-22z m971 6 c49 -20 71 -51 71 -104 0 -86 -62 -139 -162 -140 l-48 0 0 -75 c0
-73 -1 -75 -25 -75 l-25 0 0 205 0 205 75 0 c45 0 90 -6 114 -16z m1461 -9 c0
-25 -1 -25 -90 -25 l-90 0 0 -60 0 -60 85 0 c84 0 85 0 85 -25 0 -25 -1 -25
-85 -25 l-85 0 0 -70 0 -70 90 0 c89 0 90 0 90 -25 l0 -25 -115 0 -115 0 0
205 0 205 115 0 115 0 0 -25z m641 -75 c67 0 69 -1 69 -25 0 -24 -2 -25 -70
-25 l-70 0 0 -88 c0 -115 11 -132 86 -132 47 0 54 -2 54 -20 0 -43 -129 -40
-167 5 -21 24 -23 36 -23 131 l0 104 -45 0 c-41 0 -45 2 -45 25 0 23 4 25 45
25 l45 0 0 44 c0 39 3 45 23 48 20 3 22 -2 25 -44 l3 -48 70 0z m700 0 c67 0
69 -1 69 -25 0 -24 -2 -25 -70 -25 l-70 0 0 -82 c0 -116 10 -132 83 -136 48
-3 57 -6 57 -21 0 -32 -66 -42 -129 -20 -47 17 -61 53 -61 163 l0 95 -42 3
c-36 2 -44 7 -46 26 -3 20 1 22 42 22 l46 0 0 44 c0 39 3 45 23 48 20 3 22 -2
25 -44 l3 -48 70 0z m-4249 -56 c56 -48 103 -88 103 -89 0 -1 -47 -41 -104
-89 -82 -69 -106 -84 -117 -75 -8 6 -14 15 -14 19 0 4 36 37 79 71 44 35 80
67 80 71 1 4 -35 37 -79 74 -44 36 -80 69 -80 73 0 6 21 31 26 31 1 0 49 -39
106 -86z m1098 48 c41 -20 70 -71 70 -124 l0 -38 -110 0 c-109 0 -110 0 -110
-24 0 -12 11 -35 25 -50 22 -24 31 -26 100 -26 67 0 75 -2 75 -19 0 -16 -10
-21 -55 -26 -116 -15 -185 27 -199 118 -22 147 87 248 204 189z m1063 7 c39
-18 47 -50 47 -184 l0 -125 -25 0 -25 0 0 116 c0 63 -5 124 -10 135 -17 30
-70 25 -103 -9 -26 -27 -27 -33 -27 -135 l0 -107 -30 0 -30 0 0 155 0 155 25
0 c20 0 25 -5 25 -26 l0 -26 35 31 c38 33 76 39 118 20z m1081 -18 c19 -19 21
-35 24 -156 l4 -135 -26 0 -26 0 0 108 c0 126 -11 156 -56 160 -24 2 -39 -4
-63 -28 -31 -31 -31 -32 -31 -136 l0 -104 -25 0 -25 0 0 155 c0 151 1 155 21
155 12 0 23 -8 26 -19 5 -18 7 -18 41 6 44 30 102 27 136 -6z m2071 15 c45
-19 75 -69 75 -123 l0 -43 -110 0 c-105 0 -110 -1 -110 -21 0 -11 13 -34 29
-50 27 -27 35 -29 100 -29 63 0 71 -2 71 -19 0 -14 -10 -20 -37 -25 -144 -23
-213 26 -213 152 0 133 87 203 195 158z m711 -2 c40 -19 62 -55 71 -119 l6
-45 -116 0 -116 0 10 -32 c15 -56 42 -70 126 -66 69 3 73 2 73 -18 0 -17 -8
-23 -37 -28 -108 -17 -181 8 -206 73 -61 151 57 297 189 235z m-4256 -124 l0
-130 45 0 c41 0 45 -2 45 -25 l0 -25 -126 0 c-124 0 -125 0 -122 23 3 19 10
22 56 25 l52 3 0 105 0 104 -45 0 c-41 0 -45 2 -45 25 0 24 2 25 70 25 l70 0
0 -130z m2110 0 l0 -130 45 0 c41 0 45 -2 45 -25 l0 -25 -126 0 c-124 0 -125
0 -122 23 3 19 10 22 56 25 l52 3 0 105 0 104 -45 0 c-41 0 -45 2 -45 25 0 24
2 25 70 25 l70 0 0 -130z m626 4 l48 -126 45 126 c44 120 47 126 74 126 15 0
27 -2 27 -5 0 -2 -25 -71 -55 -152 -90 -239 -120 -280 -210 -290 -45 -6 -47
-5 -43 18 2 19 10 25 35 27 33 3 93 59 93 86 0 7 -24 72 -54 143 -75 181 -73
173 -38 173 28 0 31 -4 78 -126z m1061 65 l40 -61 43 61 c35 50 48 61 71 61
16 0 29 -3 29 -6 0 -3 -25 -37 -55 -76 -63 -80 -64 -64 18 -168 l48 -60 -35 0
c-31 0 -39 6 -77 61 -35 49 -45 58 -54 46 -5 -8 -25 -35 -42 -61 -27 -37 -38
-46 -63 -46 -16 0 -30 2 -30 6 0 3 25 36 55 74 30 38 55 72 55 75 0 5 -28 44
-103 143 -7 9 -1 12 25 12 32 0 39 -6 75 -61z m-629 -171 c28 -28 2 -88 -38
-88 -40 0 -66 60 -38 88 7 7 24 12 38 12 14 0 31 -5 38 -12z"/>
<path d="M2260 3910 l0 -80 54 0 c66 0 94 20 102 72 5 30 2 41 -19 62 -22 22
-35 26 -82 26 l-55 0 0 -80z"/>
<path d="M1929 3881 c-16 -16 -29 -39 -29 -50 0 -20 6 -21 80 -21 79 0 80 0
80 25 0 34 -42 75 -75 75 -16 0 -38 -12 -56 -29z"/>
<path d="M6156 3888 c-14 -13 -28 -36 -32 -51 l-6 -28 83 3 c83 3 84 3 81 28
-3 31 -45 70 -77 70 -13 0 -35 -10 -49 -22z"/>
<path d="M6875 3898 c-29 -16 -44 -40 -45 -65 0 -22 4 -23 80 -23 79 0 80 0
80 25 0 14 -11 37 -25 50 -26 27 -58 31 -90 13z"/>
</g>
</svg>
